# xmcd
#
# Track frame offsets:
# 150
# 23905
# 34757
# 47082
# 66000
# 81995
# 104647
# 120390
# 141045
# 162295
# 177762
# 193035
#
# Disc length: 2739 seconds
#
#
# Revision: 0
# Processed by: cddbd v1.5.1PL0 Copyright (c) Steve Scherf et al.
# Submitted via: FreeRIP 2.90 
#
DISCID=9f0ab10c
DTITLE=Nashville Weather - Whether Or Not
DYEAR=2003
DGENRE=English Country Music
TTITLE0=La Rejouissance - Drowsy Maggie
TTITLE1=Coal Quay Market
TTITLE2=Fralich #5
TTITLE3=Knock Me A Kiss (Waller)
TTITLE4=E. St. Louis Tootalou (Ellington)
TTITLE5=Star Of The County Down
TTITLE6=Swallow Tail Jig - Maggie Brown's Favorite
TTITLE7=McPherson's Lament
TTITLE8=Richland Woman (Tyson)
TTITLE9=Play Me A Swing Song
TTITLE10=Alabama Jubilee
TTITLE11=Argiers Parson's Farewell
EXTD=Dedicated to Ruby Thatcher for her early and \ncontinued support of English Country Music
EXTT0=
EXTT1=
EXTT2=
EXTT3=
EXTT4=
EXTT5=
EXTT6=
EXTT7=
EXTT8=
EXTT9=
EXTT10=
EXTT11=
PLAYORDER=
